<?xml version="1.0" standalone="no"?>
<!DOCTYPE svg PUBLIC "-//W3C//DTD SVG 20010904//EN"
 "http://www.w3.org/TR/2001/REC-SVG-20010904/DTD/svg10.dtd">
<svg version="1.0" xmlns="http://www.w3.org/2000/svg"
 width="32.000000pt" height="32.000000pt" viewBox="0 0 32.000000 32.000000"
 preserveAspectRatio="xMidYMid meet">

<g transform="translate(0.000000,32.000000) scale(0.100000,-0.100000)"
fill="#000000" stroke="none">
<path d="M90 298 c-33 -17 -51 -35 -67 -68 -29 -55 -29 -83 0 -140 l22 -45 3
55 c2 32 -1 56 -7 58 -14 5 -14 32 -1 32 6 0 10 15 10 33 0 50 14 57 110 57
96 0 110 -7 110 -57 0 -18 5 -33 10 -33 13 0 13 -27 -1 -32 -6 -2 -9 -26 -7
-58 l3 -55 22 45 c29 57 29 85 1 140 -25 48 -89 90 -138 90 -14 0 -46 -10 -70
-22z"/>
<path d="M75 250 c-4 -6 27 -10 85 -10 58 0 89 4 85 10 -3 6 -42 10 -85 10
-43 0 -82 -4 -85 -10z"/>
<path d="M70 185 c0 -34 1 -35 40 -35 39 0 40 1 40 35 0 34 -1 35 -40 35 -39
0 -40 -1 -40 -35z"/>
<path d="M170 185 c0 -34 1 -35 40 -35 39 0 40 1 40 35 0 34 -1 35 -40 35 -39
0 -40 -1 -40 -35z"/>
<path d="M70 100 l0 -30 90 0 90 0 0 30 0 30 -90 0 -90 0 0 -30z m50 0 c0 -5
-9 -10 -20 -10 -11 0 -20 5 -20 10 0 6 9 10 20 10 11 0 20 -4 20 -10z m120 0
c0 -5 -9 -10 -20 -10 -11 0 -20 5 -20 10 0 6 9 10 20 10 11 0 20 -4 20 -10z"/>
<path d="M76 41 c-16 -6 -13 -10 22 -24 53 -21 71 -21 124 0 35 14 38 18 22
24 -10 4 -48 8 -84 8 -36 0 -74 -4 -84 -8z"/>
</g>
</svg>
