<svg width="317" height="53" viewBox="0 0 317 53" fill="none" xmlns="http://www.w3.org/2000/svg">
<path d="M0.0853906 11.2628C0.0853906 10.1028 0.318724 9.08944 0.785391 8.22277C1.26539 7.35611 1.92539 6.68944 2.76539 6.22277C3.61872 5.75611 4.59206 5.52277 5.68539 5.52277C7.08539 5.52277 8.25206 5.88944 9.18539 6.62277C10.1321 7.35611 10.7521 8.38944 11.0454 9.72277H7.40539C7.09872 8.86944 6.50539 8.44277 5.62539 8.44277C4.99872 8.44277 4.49872 8.68944 4.12539 9.18277C3.75206 9.66277 3.56539 10.3561 3.56539 11.2628C3.56539 12.1694 3.75206 12.8694 4.12539 13.3628C4.49872 13.8428 4.99872 14.0828 5.62539 14.0828C6.50539 14.0828 7.09872 13.6561 7.40539 12.8028H11.0454C10.7521 14.1094 10.1321 15.1361 9.18539 15.8828C8.23872 16.6294 7.07206 17.0028 5.68539 17.0028C4.59206 17.0028 3.61872 16.7694 2.76539 16.3028C1.92539 15.8361 1.26539 15.1694 0.785391 14.3028C0.318724 13.4361 0.0853906 12.4228 0.0853906 11.2628ZM19.7348 5.56277C21.0148 5.56277 22.0414 5.98944 22.8148 6.84277C23.5881 7.68277 23.9748 8.84277 23.9748 10.3228V16.8428H20.5748V10.7828C20.5748 10.0361 20.3814 9.45611 19.9948 9.04277C19.6081 8.62944 19.0881 8.42277 18.4348 8.42277C17.7814 8.42277 17.2614 8.62944 16.8748 9.04277C16.4881 9.45611 16.2948 10.0361 16.2948 10.7828V16.8428H12.8748V2.04277H16.2948V7.18277C16.6414 6.68944 17.1148 6.29611 17.7148 6.00277C18.3148 5.70944 18.9881 5.56277 19.7348 5.56277ZM36.8713 11.0828C36.8713 11.4028 36.8513 11.7361 36.8113 12.0828H29.0713C29.1247 12.7761 29.3447 13.3094 29.7313 13.6828C30.1313 14.0428 30.618 14.2228 31.1913 14.2228C32.0447 14.2228 32.638 13.8628 32.9713 13.1428H36.6113C36.4247 13.8761 36.0847 14.5361 35.5913 15.1228C35.1113 15.7094 34.5047 16.1694 33.7713 16.5028C33.038 16.8361 32.218 17.0028 31.3113 17.0028C30.218 17.0028 29.2447 16.7694 28.3913 16.3028C27.538 15.8361 26.8713 15.1694 26.3913 14.3028C25.9113 13.4361 25.6713 12.4228 25.6713 11.2628C25.6713 10.1028 25.9047 9.08944 26.3713 8.22277C26.8513 7.35611 27.518 6.68944 28.3713 6.22277C29.2247 5.75611 30.2047 5.52277 31.3113 5.52277C32.3913 5.52277 33.3513 5.74944 34.1913 6.20277C35.0313 6.65611 35.6847 7.30277 36.1513 8.14277C36.6313 8.98277 36.8713 9.96277 36.8713 11.0828ZM33.3713 10.1828C33.3713 9.59611 33.1713 9.12944 32.7713 8.78277C32.3713 8.43611 31.8713 8.26277 31.2713 8.26277C30.698 8.26277 30.2113 8.42944 29.8113 8.76277C29.4247 9.09611 29.1847 9.56944 29.0913 10.1828H33.3713ZM37.9955 11.2628C37.9955 10.1028 38.2289 9.08944 38.6955 8.22277C39.1755 7.35611 39.8355 6.68944 40.6755 6.22277C41.5289 5.75611 42.5022 5.52277 43.5955 5.52277C44.9955 5.52277 46.1622 5.88944 47.0955 6.62277C48.0422 7.35611 48.6622 8.38944 48.9555 9.72277H45.3155C45.0089 8.86944 44.4155 8.44277 43.5355 8.44277C42.9089 8.44277 42.4089 8.68944 42.0355 9.18277C41.6622 9.66277 41.4755 10.3561 41.4755 11.2628C41.4755 12.1694 41.6622 12.8694 42.0355 13.3628C42.4089 13.8428 42.9089 14.0828 43.5355 14.0828C44.4155 14.0828 45.0089 13.6561 45.3155 12.8028H48.9555C48.6622 14.1094 48.0422 15.1361 47.0955 15.8828C46.1489 16.6294 44.9822 17.0028 43.5955 17.0028C42.5022 17.0028 41.5289 16.7694 40.6755 16.3028C39.8355 15.8361 39.1755 15.1694 38.6955 14.3028C38.2289 13.4361 37.9955 12.4228 37.9955 11.2628ZM57.6049 16.8428L54.2049 12.1628V16.8428H50.7849V2.04277H54.2049V10.2228L57.5849 5.68277H61.8049L57.1649 11.2828L61.8449 16.8428H57.6049ZM73.6065 13.9428V16.8428H71.8665C70.6265 16.8428 69.6598 16.5428 68.9665 15.9428C68.2732 15.3294 67.9265 14.3361 67.9265 12.9628V8.52277H66.5665V5.68277H67.9265V2.96277H71.3465V5.68277H73.5865V8.52277H71.3465V13.0028C71.3465 13.3361 71.4265 13.5761 71.5865 13.7228C71.7465 13.8694 72.0132 13.9428 72.3865 13.9428H73.6065ZM82.3715 5.56277C83.6515 5.56277 84.6782 5.98944 85.4515 6.84277C86.2248 7.68277 86.6115 8.84277 86.6115 10.3228V16.8428H83.2115V10.7828C83.2115 10.0361 83.0182 9.45611 82.6315 9.04277C82.2448 8.62944 81.7248 8.42277 81.0715 8.42277C80.4182 8.42277 79.8982 8.62944 79.5115 9.04277C79.1248 9.45611 78.9315 10.0361 78.9315 10.7828V16.8428H75.5115V2.04277H78.9315V7.18277C79.2782 6.68944 79.7515 6.29611 80.3515 6.00277C80.9515 5.70944 81.6248 5.56277 82.3715 5.56277ZM99.508 11.0828C99.508 11.4028 99.488 11.7361 99.448 12.0828H91.708C91.7614 12.7761 91.9814 13.3094 92.368 13.6828C92.768 14.0428 93.2547 14.2228 93.828 14.2228C94.6814 14.2228 95.2747 13.8628 95.608 13.1428H99.248C99.0614 13.8761 98.7214 14.5361 98.228 15.1228C97.748 15.7094 97.1414 16.1694 96.408 16.5028C95.6747 16.8361 94.8547 17.0028 93.948 17.0028C92.8547 17.0028 91.8814 16.7694 91.028 16.3028C90.1747 15.8361 89.508 15.1694 89.028 14.3028C88.548 13.4361 88.308 12.4228 88.308 11.2628C88.308 10.1028 88.5414 9.08944 89.008 8.22277C89.488 7.35611 90.1547 6.68944 91.008 6.22277C91.8614 5.75611 92.8414 5.52277 93.948 5.52277C95.028 5.52277 95.988 5.74944 96.828 6.20277C97.668 6.65611 98.3214 7.30277 98.788 8.14277C99.268 8.98277 99.508 9.96277 99.508 11.0828ZM96.008 10.1828C96.008 9.59611 95.808 9.12944 95.408 8.78277C95.008 8.43611 94.508 8.26277 93.908 8.26277C93.3347 8.26277 92.848 8.42944 92.448 8.76277C92.0614 9.09611 91.8214 9.56944 91.728 10.1828H96.008ZM104.871 11.2628C104.871 10.1028 105.104 9.08944 105.571 8.22277C106.051 7.35611 106.711 6.68944 107.551 6.22277C108.404 5.75611 109.377 5.52277 110.471 5.52277C111.871 5.52277 113.037 5.88944 113.971 6.62277C114.917 7.35611 115.537 8.38944 115.831 9.72277H112.191C111.884 8.86944 111.291 8.44277 110.411 8.44277C109.784 8.44277 109.284 8.68944 108.911 9.18277C108.537 9.66277 108.351 10.3561 108.351 11.2628C108.351 12.1694 108.537 12.8694 108.911 13.3628C109.284 13.8428 109.784 14.0828 110.411 14.0828C111.291 14.0828 111.884 13.6561 112.191 12.8028H115.831C115.537 14.1094 114.917 15.1361 113.971 15.8828C113.024 16.6294 111.857 17.0028 110.471 17.0028C109.377 17.0028 108.404 16.7694 107.551 16.3028C106.711 15.8361 106.051 15.1694 105.571 14.3028C105.104 13.4361 104.871 12.4228 104.871 11.2628ZM122.74 17.0028C121.647 17.0028 120.66 16.7694 119.78 16.3028C118.913 15.8361 118.227 15.1694 117.72 14.3028C117.227 13.4361 116.98 12.4228 116.98 11.2628C116.98 10.1161 117.233 9.10944 117.74 8.24277C118.247 7.36277 118.94 6.68944 119.82 6.22277C120.7 5.75611 121.687 5.52277 122.78 5.52277C123.873 5.52277 124.86 5.75611 125.74 6.22277C126.62 6.68944 127.313 7.36277 127.82 8.24277C128.327 9.10944 128.58 10.1161 128.58 11.2628C128.58 12.4094 128.32 13.4228 127.8 14.3028C127.293 15.1694 126.593 15.8361 125.7 16.3028C124.82 16.7694 123.833 17.0028 122.74 17.0028ZM122.74 14.0428C123.393 14.0428 123.947 13.8028 124.4 13.3228C124.867 12.8428 125.1 12.1561 125.1 11.2628C125.1 10.3694 124.873 9.68277 124.42 9.20277C123.98 8.72277 123.433 8.48277 122.78 8.48277C122.113 8.48277 121.56 8.72277 121.12 9.20277C120.68 9.66944 120.46 10.3561 120.46 11.2628C120.46 12.1561 120.673 12.8428 121.1 13.3228C121.54 13.8028 122.087 14.0428 122.74 14.0428ZM144.634 5.56277C146.021 5.56277 147.121 5.98277 147.934 6.82277C148.761 7.66277 149.174 8.82944 149.174 10.3228V16.8428H145.774V10.7828C145.774 10.0628 145.581 9.50944 145.194 9.12277C144.821 8.72277 144.301 8.52277 143.634 8.52277C142.968 8.52277 142.441 8.72277 142.054 9.12277C141.681 9.50944 141.494 10.0628 141.494 10.7828V16.8428H138.094V10.7828C138.094 10.0628 137.901 9.50944 137.514 9.12277C137.141 8.72277 136.621 8.52277 135.954 8.52277C135.288 8.52277 134.761 8.72277 134.374 9.12277C134.001 9.50944 133.814 10.0628 133.814 10.7828V16.8428H130.394V5.68277H133.814V7.08277C134.161 6.61611 134.614 6.24944 135.174 5.98277C135.734 5.70277 136.368 5.56277 137.074 5.56277C137.914 5.56277 138.661 5.74277 139.314 6.10277C139.981 6.46277 140.501 6.97611 140.874 7.64277C141.261 7.02944 141.788 6.52944 142.454 6.14277C143.121 5.75611 143.848 5.56277 144.634 5.56277ZM154.986 7.26277C155.32 6.74277 155.78 6.32277 156.366 6.00277C156.953 5.68277 157.64 5.52277 158.426 5.52277C159.346 5.52277 160.18 5.75611 160.926 6.22277C161.673 6.68944 162.26 7.35611 162.686 8.22277C163.126 9.08944 163.346 10.0961 163.346 11.2428C163.346 12.3894 163.126 13.4028 162.686 14.2828C162.26 15.1494 161.673 15.8228 160.926 16.3028C160.18 16.7694 159.346 17.0028 158.426 17.0028C157.653 17.0028 156.966 16.8428 156.366 16.5228C155.78 16.2028 155.32 15.7894 154.986 15.2828V22.1628H151.566V5.68277H154.986V7.26277ZM159.866 11.2428C159.866 10.3894 159.626 9.72277 159.146 9.24277C158.68 8.74944 158.1 8.50277 157.406 8.50277C156.726 8.50277 156.146 8.74944 155.666 9.24277C155.2 9.73611 154.966 10.4094 154.966 11.2628C154.966 12.1161 155.2 12.7894 155.666 13.2828C156.146 13.7761 156.726 14.0228 157.406 14.0228C158.086 14.0228 158.666 13.7761 159.146 13.2828C159.626 12.7761 159.866 12.0961 159.866 11.2428ZM164.46 11.2428C164.46 10.0961 164.674 9.08944 165.1 8.22277C165.54 7.35611 166.134 6.68944 166.88 6.22277C167.627 5.75611 168.46 5.52277 169.38 5.52277C170.167 5.52277 170.854 5.68277 171.44 6.00277C172.04 6.32277 172.5 6.74277 172.82 7.26277V5.68277H176.24V16.8428H172.82V15.2628C172.487 15.7828 172.02 16.2028 171.42 16.5228C170.834 16.8428 170.147 17.0028 169.36 17.0028C168.454 17.0028 167.627 16.7694 166.88 16.3028C166.134 15.8228 165.54 15.1494 165.1 14.2828C164.674 13.4028 164.46 12.3894 164.46 11.2428ZM172.82 11.2628C172.82 10.4094 172.58 9.73611 172.1 9.24277C171.634 8.74944 171.06 8.50277 170.38 8.50277C169.7 8.50277 169.12 8.74944 168.64 9.24277C168.174 9.72277 167.94 10.3894 167.94 11.2428C167.94 12.0961 168.174 12.7761 168.64 13.2828C169.12 13.7761 169.7 14.0228 170.38 14.0228C171.06 14.0228 171.634 13.7761 172.1 13.2828C172.58 12.7894 172.82 12.1161 172.82 11.2628ZM185.515 5.56277C186.821 5.56277 187.861 5.98944 188.635 6.84277C189.421 7.68277 189.815 8.84277 189.815 10.3228V16.8428H186.415V10.7828C186.415 10.0361 186.221 9.45611 185.835 9.04277C185.448 8.62944 184.928 8.42277 184.275 8.42277C183.621 8.42277 183.101 8.62944 182.715 9.04277C182.328 9.45611 182.135 10.0361 182.135 10.7828V16.8428H178.715V5.68277H182.135V7.16277C182.481 6.66944 182.948 6.28277 183.535 6.00277C184.121 5.70944 184.781 5.56277 185.515 5.56277ZM203.591 5.68277L196.591 22.1428H192.911L195.471 16.4628L190.931 5.68277H194.751L197.331 12.6628L199.891 5.68277H203.591ZM212.486 2.04277V16.8428H209.066V2.04277H212.486ZM220.045 17.0028C218.951 17.0028 217.965 16.7694 217.085 16.3028C216.218 15.8361 215.531 15.1694 215.025 14.3028C214.531 13.4361 214.285 12.4228 214.285 11.2628C214.285 10.1161 214.538 9.10944 215.045 8.24277C215.551 7.36277 216.245 6.68944 217.125 6.22277C218.005 5.75611 218.991 5.52277 220.085 5.52277C221.178 5.52277 222.165 5.75611 223.045 6.22277C223.925 6.68944 224.618 7.36277 225.125 8.24277C225.631 9.10944 225.885 10.1161 225.885 11.2628C225.885 12.4094 225.625 13.4228 225.105 14.3028C224.598 15.1694 223.898 15.8361 223.005 16.3028C222.125 16.7694 221.138 17.0028 220.045 17.0028ZM220.045 14.0428C220.698 14.0428 221.251 13.8028 221.705 13.3228C222.171 12.8428 222.405 12.1561 222.405 11.2628C222.405 10.3694 222.178 9.68277 221.725 9.20277C221.285 8.72277 220.738 8.48277 220.085 8.48277C219.418 8.48277 218.865 8.72277 218.425 9.20277C217.985 9.66944 217.765 10.3561 217.765 11.2628C217.765 12.1561 217.978 12.8428 218.405 13.3228C218.845 13.8028 219.391 14.0428 220.045 14.0428ZM227.019 11.2628C227.019 10.1028 227.252 9.08944 227.719 8.22277C228.199 7.35611 228.859 6.68944 229.699 6.22277C230.552 5.75611 231.526 5.52277 232.619 5.52277C234.019 5.52277 235.186 5.88944 236.119 6.62277C237.066 7.35611 237.686 8.38944 237.979 9.72277H234.339C234.032 8.86944 233.439 8.44277 232.559 8.44277C231.932 8.44277 231.432 8.68944 231.059 9.18277C230.686 9.66277 230.499 10.3561 230.499 11.2628C230.499 12.1694 230.686 12.8694 231.059 13.3628C231.432 13.8428 231.932 14.0828 232.559 14.0828C233.439 14.0828 234.032 13.6561 234.339 12.8028H237.979C237.686 14.1094 237.066 15.1361 236.119 15.8828C235.172 16.6294 234.006 17.0028 232.619 17.0028C231.526 17.0028 230.552 16.7694 229.699 16.3028C228.859 15.8361 228.199 15.1694 227.719 14.3028C227.252 13.4361 227.019 12.4228 227.019 11.2628ZM239.128 11.2428C239.128 10.0961 239.342 9.08944 239.768 8.22277C240.208 7.35611 240.802 6.68944 241.548 6.22277C242.295 5.75611 243.128 5.52277 244.048 5.52277C244.835 5.52277 245.522 5.68277 246.108 6.00277C246.708 6.32277 247.168 6.74277 247.488 7.26277V5.68277H250.908V16.8428H247.488V15.2628C247.155 15.7828 246.688 16.2028 246.088 16.5228C245.502 16.8428 244.815 17.0028 244.028 17.0028C243.122 17.0028 242.295 16.7694 241.548 16.3028C240.802 15.8228 240.208 15.1494 239.768 14.2828C239.342 13.4028 239.128 12.3894 239.128 11.2428ZM247.488 11.2628C247.488 10.4094 247.248 9.73611 246.768 9.24277C246.302 8.74944 245.728 8.50277 245.048 8.50277C244.368 8.50277 243.788 8.74944 243.308 9.24277C242.842 9.72277 242.608 10.3894 242.608 11.2428C242.608 12.0961 242.842 12.7761 243.308 13.2828C243.788 13.7761 244.368 14.0228 245.048 14.0228C245.728 14.0228 246.302 13.7761 246.768 13.2828C247.248 12.7894 247.488 12.1161 247.488 11.2628ZM259.603 13.9428V16.8428H257.863C256.623 16.8428 255.656 16.5428 254.963 15.9428C254.269 15.3294 253.923 14.3361 253.923 12.9628V8.52277H252.563V5.68277H253.923V2.96277H257.343V5.68277H259.583V8.52277H257.343V13.0028C257.343 13.3361 257.423 13.5761 257.583 13.7228C257.743 13.8694 258.009 13.9428 258.383 13.9428H259.603ZM263.228 4.52277C262.628 4.52277 262.134 4.34944 261.748 4.00277C261.374 3.64277 261.188 3.20277 261.188 2.68277C261.188 2.14944 261.374 1.70944 261.748 1.36277C262.134 1.00277 262.628 0.822772 263.228 0.822772C263.814 0.822772 264.294 1.00277 264.668 1.36277C265.054 1.70944 265.248 2.14944 265.248 2.68277C265.248 3.20277 265.054 3.64277 264.668 4.00277C264.294 4.34944 263.814 4.52277 263.228 4.52277ZM264.928 5.68277V16.8428H261.508V5.68277H264.928ZM272.486 17.0028C271.393 17.0028 270.406 16.7694 269.526 16.3028C268.659 15.8361 267.973 15.1694 267.466 14.3028C266.973 13.4361 266.726 12.4228 266.726 11.2628C266.726 10.1161 266.979 9.10944 267.486 8.24277C267.993 7.36277 268.686 6.68944 269.566 6.22277C270.446 5.75611 271.433 5.52277 272.526 5.52277C273.619 5.52277 274.606 5.75611 275.486 6.22277C276.366 6.68944 277.059 7.36277 277.566 8.24277C278.073 9.10944 278.326 10.1161 278.326 11.2628C278.326 12.4094 278.066 13.4228 277.546 14.3028C277.039 15.1694 276.339 15.8361 275.446 16.3028C274.566 16.7694 273.579 17.0028 272.486 17.0028ZM272.486 14.0428C273.139 14.0428 273.693 13.8028 274.146 13.3228C274.613 12.8428 274.846 12.1561 274.846 11.2628C274.846 10.3694 274.619 9.68277 274.166 9.20277C273.726 8.72277 273.179 8.48277 272.526 8.48277C271.859 8.48277 271.306 8.72277 270.866 9.20277C270.426 9.66944 270.206 10.3561 270.206 11.2628C270.206 12.1561 270.419 12.8428 270.846 13.3228C271.286 13.8028 271.833 14.0428 272.486 14.0428ZM286.94 5.56277C288.247 5.56277 289.287 5.98944 290.06 6.84277C290.847 7.68277 291.24 8.84277 291.24 10.3228V16.8428H287.84V10.7828C287.84 10.0361 287.647 9.45611 287.26 9.04277C286.874 8.62944 286.354 8.42277 285.7 8.42277C285.047 8.42277 284.527 8.62944 284.14 9.04277C283.754 9.45611 283.56 10.0361 283.56 10.7828V16.8428H280.14V5.68277H283.56V7.16277C283.907 6.66944 284.374 6.28277 284.96 6.00277C285.547 5.70944 286.207 5.56277 286.94 5.56277ZM304.075 13.9428V16.8428H302.335C301.095 16.8428 300.129 16.5428 299.435 15.9428C298.742 15.3294 298.395 14.3361 298.395 12.9628V8.52277H297.035V5.68277H298.395V2.96277H301.815V5.68277H304.055V8.52277H301.815V13.0028C301.815 13.3361 301.895 13.5761 302.055 13.7228C302.215 13.8694 302.482 13.9428 302.855 13.9428H304.075ZM311.06 17.0028C309.967 17.0028 308.98 16.7694 308.1 16.3028C307.234 15.8361 306.547 15.1694 306.04 14.3028C305.547 13.4361 305.3 12.4228 305.3 11.2628C305.3 10.1161 305.554 9.10944 306.06 8.24277C306.567 7.36277 307.26 6.68944 308.14 6.22277C309.02 5.75611 310.007 5.52277 311.1 5.52277C312.194 5.52277 313.18 5.75611 314.06 6.22277C314.94 6.68944 315.634 7.36277 316.14 8.24277C316.647 9.10944 316.9 10.1161 316.9 11.2628C316.9 12.4094 316.64 13.4228 316.12 14.3028C315.614 15.1694 314.914 15.8361 314.02 16.3028C313.14 16.7694 312.154 17.0028 311.06 17.0028ZM311.06 14.0428C311.714 14.0428 312.267 13.8028 312.72 13.3228C313.187 12.8428 313.42 12.1561 313.42 11.2628C313.42 10.3694 313.194 9.68277 312.74 9.20277C312.3 8.72277 311.754 8.48277 311.1 8.48277C310.434 8.48277 309.88 8.72277 309.44 9.20277C309 9.66944 308.78 10.3561 308.78 11.2628C308.78 12.1561 308.994 12.8428 309.42 13.3228C309.86 13.8028 310.407 14.0428 311.06 14.0428ZM29.5483 41.2628C29.5483 40.1028 29.7816 39.0894 30.2483 38.2228C30.7283 37.3561 31.3883 36.6894 32.2283 36.2228C33.0816 35.7561 34.0549 35.5228 35.1483 35.5228C36.5483 35.5228 37.7149 35.8894 38.6483 36.6228C39.5949 37.3561 40.2149 38.3894 40.5083 39.7228H36.8683C36.5616 38.8694 35.9683 38.4428 35.0883 38.4428C34.4616 38.4428 33.9616 38.6894 33.5883 39.1828C33.2149 39.6628 33.0283 40.3561 33.0283 41.2628C33.0283 42.1694 33.2149 42.8694 33.5883 43.3628C33.9616 43.8428 34.4616 44.0828 35.0883 44.0828C35.9683 44.0828 36.5616 43.6561 36.8683 42.8028H40.5083C40.2149 44.1094 39.5949 45.1361 38.6483 45.8828C37.7016 46.6294 36.5349 47.0028 35.1483 47.0028C34.0549 47.0028 33.0816 46.7694 32.2283 46.3028C31.3883 45.8361 30.7283 45.1694 30.2483 44.3028C29.7816 43.4361 29.5483 42.4228 29.5483 41.2628ZM47.4177 47.0028C46.3243 47.0028 45.3377 46.7694 44.4577 46.3028C43.591 45.8361 42.9043 45.1694 42.3977 44.3028C41.9043 43.4361 41.6577 42.4228 41.6577 41.2628C41.6577 40.1161 41.911 39.1094 42.4177 38.2428C42.9243 37.3628 43.6177 36.6894 44.4977 36.2228C45.3777 35.7561 46.3643 35.5228 47.4577 35.5228C48.551 35.5228 49.5377 35.7561 50.4177 36.2228C51.2977 36.6894 51.991 37.3628 52.4977 38.2428C53.0043 39.1094 53.2577 40.1161 53.2577 41.2628C53.2577 42.4094 52.9977 43.4228 52.4777 44.3028C51.971 45.1694 51.271 45.8361 50.3777 46.3028C49.4977 46.7694 48.511 47.0028 47.4177 47.0028ZM47.4177 44.0428C48.071 44.0428 48.6243 43.8028 49.0777 43.3228C49.5443 42.8428 49.7777 42.1561 49.7777 41.2628C49.7777 40.3694 49.551 39.6828 49.0977 39.2028C48.6577 38.7228 48.111 38.4828 47.4577 38.4828C46.791 38.4828 46.2377 38.7228 45.7977 39.2028C45.3577 39.6694 45.1377 40.3561 45.1377 41.2628C45.1377 42.1561 45.351 42.8428 45.7777 43.3228C46.2177 43.8028 46.7643 44.0428 47.4177 44.0428ZM61.872 35.5628C63.1787 35.5628 64.2187 35.9894 64.992 36.8428C65.7787 37.6828 66.172 38.8428 66.172 40.3228V46.8428H62.772V40.7828C62.772 40.0361 62.5787 39.4561 62.192 39.0428C61.8054 38.6294 61.2854 38.4228 60.632 38.4228C59.9787 38.4228 59.4587 38.6294 59.072 39.0428C58.6854 39.4561 58.492 40.0361 58.492 40.7828V46.8428H55.072V35.6828H58.492V37.1628C58.8387 36.6694 59.3054 36.2828 59.892 36.0028C60.4787 35.7094 61.1387 35.5628 61.872 35.5628ZM74.1486 38.5228H72.3086V46.8428H68.8886V38.5228H67.6486V35.6828H68.8886V35.3628C68.8886 33.9894 69.2819 32.9494 70.0686 32.2428C70.8553 31.5228 72.0086 31.1628 73.5286 31.1628C73.7819 31.1628 73.9686 31.1694 74.0886 31.1828V34.0828C73.4353 34.0428 72.9753 34.1361 72.7086 34.3628C72.4419 34.5894 72.3086 34.9961 72.3086 35.5828V35.6828H74.1486V38.5228ZM77.4756 34.5228C76.8756 34.5228 76.3823 34.3494 75.9956 34.0028C75.6223 33.6428 75.4356 33.2028 75.4356 32.6828C75.4356 32.1494 75.6223 31.7094 75.9956 31.3628C76.3823 31.0028 76.8756 30.8228 77.4756 30.8228C78.0623 30.8228 78.5423 31.0028 78.9156 31.3628C79.3023 31.7094 79.4956 32.1494 79.4956 32.6828C79.4956 33.2028 79.3023 33.6428 78.9156 34.0028C78.5423 34.3494 78.0623 34.5228 77.4756 34.5228ZM79.1756 35.6828V46.8428H75.7556V35.6828H79.1756ZM85.0741 37.5428C85.4741 36.9294 85.9741 36.4494 86.5741 36.1028C87.1741 35.7428 87.8407 35.5628 88.5741 35.5628V39.1828H87.6341C86.7807 39.1828 86.1407 39.3694 85.7141 39.7428C85.2874 40.1028 85.0741 40.7428 85.0741 41.6628V46.8428H81.6541V35.6828H85.0741V37.5428ZM104.449 35.5628C105.835 35.5628 106.935 35.9828 107.749 36.8228C108.575 37.6628 108.989 38.8294 108.989 40.3228V46.8428H105.589V40.7828C105.589 40.0628 105.395 39.5094 105.009 39.1228C104.635 38.7228 104.115 38.5228 103.449 38.5228C102.782 38.5228 102.255 38.7228 101.869 39.1228C101.495 39.5094 101.309 40.0628 101.309 40.7828V46.8428H97.9088V40.7828C97.9088 40.0628 97.7154 39.5094 97.3288 39.1228C96.9554 38.7228 96.4354 38.5228 95.7688 38.5228C95.1021 38.5228 94.5754 38.7228 94.1888 39.1228C93.8154 39.5094 93.6288 40.0628 93.6288 40.7828V46.8428H90.2088V35.6828H93.6288V37.0828C93.9754 36.6161 94.4288 36.2494 94.9888 35.9828C95.5488 35.7028 96.1821 35.5628 96.8888 35.5628C97.7288 35.5628 98.4754 35.7428 99.1288 36.1028C99.7954 36.4628 100.315 36.9761 100.689 37.6428C101.075 37.0294 101.602 36.5294 102.269 36.1428C102.935 35.7561 103.662 35.5628 104.449 35.5628ZM127.019 35.6828L120.019 52.1428H116.339L118.899 46.4628L114.359 35.6828H118.179L120.759 42.6628L123.319 35.6828H127.019ZM139.276 35.6828V46.8428H135.856V45.3228C135.509 45.8161 135.036 46.2161 134.436 46.5228C133.849 46.8161 133.196 46.9628 132.476 46.9628C131.622 46.9628 130.869 46.7761 130.216 46.4028C129.562 46.0161 129.056 45.4628 128.696 44.7428C128.336 44.0228 128.156 43.1761 128.156 42.2028V35.6828H131.556V41.7428C131.556 42.4894 131.749 43.0694 132.136 43.4828C132.522 43.8961 133.042 44.1028 133.696 44.1028C134.362 44.1028 134.889 43.8961 135.276 43.4828C135.662 43.0694 135.856 42.4894 135.856 41.7428V35.6828H139.276ZM146.812 47.0028C145.719 47.0028 144.732 46.7694 143.852 46.3028C142.986 45.8361 142.299 45.1694 141.792 44.3028C141.299 43.4361 141.052 42.4228 141.052 41.2628C141.052 40.1161 141.306 39.1094 141.812 38.2428C142.319 37.3628 143.012 36.6894 143.892 36.2228C144.772 35.7561 145.759 35.5228 146.852 35.5228C147.946 35.5228 148.932 35.7561 149.812 36.2228C150.692 36.6894 151.386 37.3628 151.892 38.2428C152.399 39.1094 152.652 40.1161 152.652 41.2628C152.652 42.4094 152.392 43.4228 151.872 44.3028C151.366 45.1694 150.666 45.8361 149.772 46.3028C148.892 46.7694 147.906 47.0028 146.812 47.0028ZM146.812 44.0428C147.466 44.0428 148.019 43.8028 148.472 43.3228C148.939 42.8428 149.172 42.1561 149.172 41.2628C149.172 40.3694 148.946 39.6828 148.492 39.2028C148.052 38.7228 147.506 38.4828 146.852 38.4828C146.186 38.4828 145.632 38.7228 145.192 39.2028C144.752 39.6694 144.532 40.3561 144.532 41.2628C144.532 42.1561 144.746 42.8428 145.172 43.3228C145.612 43.8028 146.159 44.0428 146.812 44.0428ZM157.887 37.5428C158.287 36.9294 158.787 36.4494 159.387 36.1028C159.987 35.7428 160.653 35.5628 161.387 35.5628V39.1828H160.447C159.593 39.1828 158.953 39.3694 158.527 39.7428C158.1 40.1028 157.887 40.7428 157.887 41.6628V46.8428H154.467V35.6828H157.887V37.5428ZM170.68 37.5428C171.08 36.9294 171.58 36.4494 172.18 36.1028C172.78 35.7428 173.446 35.5628 174.18 35.5628V39.1828H173.24C172.386 39.1828 171.746 39.3694 171.32 39.7428C170.893 40.1028 170.68 40.7428 170.68 41.6628V46.8428H167.26V35.6828H170.68V37.5428ZM186.334 41.0828C186.334 41.4028 186.314 41.7361 186.274 42.0828H178.534C178.588 42.7761 178.808 43.3094 179.194 43.6828C179.594 44.0428 180.081 44.2228 180.654 44.2228C181.508 44.2228 182.101 43.8628 182.434 43.1428H186.074C185.888 43.8761 185.548 44.5361 185.054 45.1228C184.574 45.7094 183.968 46.1694 183.234 46.5028C182.501 46.8361 181.681 47.0028 180.774 47.0028C179.681 47.0028 178.708 46.7694 177.854 46.3028C177.001 45.8361 176.334 45.1694 175.854 44.3028C175.374 43.4361 175.134 42.4228 175.134 41.2628C175.134 40.1028 175.368 39.0894 175.834 38.2228C176.314 37.3561 176.981 36.6894 177.834 36.2228C178.688 35.7561 179.668 35.5228 180.774 35.5228C181.854 35.5228 182.814 35.7494 183.654 36.2028C184.494 36.6561 185.148 37.3028 185.614 38.1428C186.094 38.9828 186.334 39.9628 186.334 41.0828ZM182.834 40.1828C182.834 39.5961 182.634 39.1294 182.234 38.7828C181.834 38.4361 181.334 38.2628 180.734 38.2628C180.161 38.2628 179.674 38.4294 179.274 38.7628C178.888 39.0961 178.648 39.5694 178.554 40.1828H182.834ZM192.378 35.5228C193.165 35.5228 193.852 35.6828 194.438 36.0028C195.038 36.3228 195.498 36.7428 195.818 37.2628V35.6828H199.238V46.8228C199.238 47.8494 199.032 48.7761 198.618 49.6028C198.218 50.4428 197.598 51.1094 196.758 51.6028C195.932 52.0961 194.898 52.3428 193.658 52.3428C192.005 52.3428 190.665 51.9494 189.638 51.1628C188.612 50.3894 188.025 49.3361 187.878 48.0028H191.258C191.365 48.4294 191.618 48.7628 192.018 49.0028C192.418 49.2561 192.912 49.3828 193.498 49.3828C194.205 49.3828 194.765 49.1761 195.178 48.7628C195.605 48.3628 195.818 47.7161 195.818 46.8228V45.2428C195.485 45.7628 195.025 46.1894 194.438 46.5228C193.852 46.8428 193.165 47.0028 192.378 47.0028C191.458 47.0028 190.625 46.7694 189.878 46.3028C189.132 45.8228 188.538 45.1494 188.098 44.2828C187.672 43.4028 187.458 42.3894 187.458 41.2428C187.458 40.0961 187.672 39.0894 188.098 38.2228C188.538 37.3561 189.132 36.6894 189.878 36.2228C190.625 35.7561 191.458 35.5228 192.378 35.5228ZM195.818 41.2628C195.818 40.4094 195.578 39.7361 195.098 39.2428C194.632 38.7494 194.058 38.5028 193.378 38.5028C192.698 38.5028 192.118 38.7494 191.638 39.2428C191.172 39.7228 190.938 40.3894 190.938 41.2428C190.938 42.0961 191.172 42.7761 191.638 43.2828C192.118 43.7761 192.698 44.0228 193.378 44.0228C194.058 44.0228 194.632 43.7761 195.098 43.2828C195.578 42.7894 195.818 42.1161 195.818 41.2628ZM203.433 34.5228C202.833 34.5228 202.339 34.3494 201.953 34.0028C201.579 33.6428 201.393 33.2028 201.393 32.6828C201.393 32.1494 201.579 31.7094 201.953 31.3628C202.339 31.0028 202.833 30.8228 203.433 30.8228C204.019 30.8228 204.499 31.0028 204.873 31.3628C205.259 31.7094 205.453 32.1494 205.453 32.6828C205.453 33.2028 205.259 33.6428 204.873 34.0028C204.499 34.3494 204.019 34.5228 203.433 34.5228ZM205.133 35.6828V46.8428H201.713V35.6828H205.133ZM212.151 47.0028C211.178 47.0028 210.311 46.8361 209.551 46.5028C208.791 46.1694 208.191 45.7161 207.751 45.1428C207.311 44.5561 207.064 43.9028 207.011 43.1828H210.391C210.431 43.5694 210.611 43.8828 210.931 44.1228C211.251 44.3628 211.644 44.4828 212.111 44.4828C212.538 44.4828 212.864 44.4028 213.091 44.2428C213.331 44.0694 213.451 43.8494 213.451 43.5828C213.451 43.2628 213.284 43.0294 212.951 42.8828C212.618 42.7228 212.078 42.5494 211.331 42.3628C210.531 42.1761 209.864 41.9828 209.331 41.7828C208.798 41.5694 208.338 41.2428 207.951 40.8028C207.564 40.3494 207.371 39.7428 207.371 38.9828C207.371 38.3428 207.544 37.7628 207.891 37.2428C208.251 36.7094 208.771 36.2894 209.451 35.9828C210.144 35.6761 210.964 35.5228 211.911 35.5228C213.311 35.5228 214.411 35.8694 215.211 36.5628C216.024 37.2561 216.491 38.1761 216.611 39.3228H213.451C213.398 38.9361 213.224 38.6294 212.931 38.4028C212.651 38.1761 212.278 38.0628 211.811 38.0628C211.411 38.0628 211.104 38.1428 210.891 38.3028C210.678 38.4494 210.571 38.6561 210.571 38.9228C210.571 39.2428 210.738 39.4828 211.071 39.6428C211.418 39.8028 211.951 39.9628 212.671 40.1228C213.498 40.3361 214.171 40.5494 214.691 40.7628C215.211 40.9628 215.664 41.2961 216.051 41.7628C216.451 42.2161 216.658 42.8294 216.671 43.6028C216.671 44.2561 216.484 44.8428 216.111 45.3628C215.751 45.8694 215.224 46.2694 214.531 46.5628C213.851 46.8561 213.058 47.0028 212.151 47.0028ZM224.983 43.9428V46.8428H223.243C222.003 46.8428 221.037 46.5428 220.343 45.9428C219.65 45.3294 219.303 44.3361 219.303 42.9628V38.5228H217.943V35.6828H219.303V32.9628H222.723V35.6828H224.963V38.5228H222.723V43.0028C222.723 43.3361 222.803 43.5761 222.963 43.7228C223.123 43.8694 223.39 43.9428 223.763 43.9428H224.983ZM230.308 37.5428C230.708 36.9294 231.208 36.4494 231.808 36.1028C232.408 35.7428 233.075 35.5628 233.808 35.5628V39.1828H232.868C232.015 39.1828 231.375 39.3694 230.948 39.7428C230.522 40.1028 230.308 40.7428 230.308 41.6628V46.8428H226.888V35.6828H230.308V37.5428ZM234.763 41.2428C234.763 40.0961 234.976 39.0894 235.403 38.2228C235.843 37.3561 236.436 36.6894 237.183 36.2228C237.93 35.7561 238.763 35.5228 239.683 35.5228C240.47 35.5228 241.156 35.6828 241.743 36.0028C242.343 36.3228 242.803 36.7428 243.123 37.2628V35.6828H246.543V46.8428H243.123V45.2628C242.79 45.7828 242.323 46.2028 241.723 46.5228C241.136 46.8428 240.45 47.0028 239.663 47.0028C238.756 47.0028 237.93 46.7694 237.183 46.3028C236.436 45.8228 235.843 45.1494 235.403 44.2828C234.976 43.4028 234.763 42.3894 234.763 41.2428ZM243.123 41.2628C243.123 40.4094 242.883 39.7361 242.403 39.2428C241.936 38.7494 241.363 38.5028 240.683 38.5028C240.003 38.5028 239.423 38.7494 238.943 39.2428C238.476 39.7228 238.243 40.3894 238.243 41.2428C238.243 42.0961 238.476 42.7761 238.943 43.2828C239.423 43.7761 240.003 44.0228 240.683 44.0228C241.363 44.0228 241.936 43.7761 242.403 43.2828C242.883 42.7894 243.123 42.1161 243.123 41.2628ZM255.237 43.9428V46.8428H253.497C252.257 46.8428 251.291 46.5428 250.597 45.9428C249.904 45.3294 249.557 44.3361 249.557 42.9628V38.5228H248.197V35.6828H249.557V32.9628H252.977V35.6828H255.217V38.5228H252.977V43.0028C252.977 43.3361 253.057 43.5761 253.217 43.7228C253.377 43.8694 253.644 43.9428 254.017 43.9428H255.237ZM258.862 34.5228C258.262 34.5228 257.769 34.3494 257.382 34.0028C257.009 33.6428 256.822 33.2028 256.822 32.6828C256.822 32.1494 257.009 31.7094 257.382 31.3628C257.769 31.0028 258.262 30.8228 258.862 30.8228C259.449 30.8228 259.929 31.0028 260.302 31.3628C260.689 31.7094 260.882 32.1494 260.882 32.6828C260.882 33.2028 260.689 33.6428 260.302 34.0028C259.929 34.3494 259.449 34.5228 258.862 34.5228ZM260.562 35.6828V46.8428H257.142V35.6828H260.562ZM268.121 47.0028C267.027 47.0028 266.041 46.7694 265.161 46.3028C264.294 45.8361 263.607 45.1694 263.101 44.3028C262.607 43.4361 262.361 42.4228 262.361 41.2628C262.361 40.1161 262.614 39.1094 263.121 38.2428C263.627 37.3628 264.321 36.6894 265.201 36.2228C266.081 35.7561 267.067 35.5228 268.161 35.5228C269.254 35.5228 270.241 35.7561 271.121 36.2228C272.001 36.6894 272.694 37.3628 273.201 38.2428C273.707 39.1094 273.961 40.1161 273.961 41.2628C273.961 42.4094 273.701 43.4228 273.181 44.3028C272.674 45.1694 271.974 45.8361 271.081 46.3028C270.201 46.7694 269.214 47.0028 268.121 47.0028ZM268.121 44.0428C268.774 44.0428 269.327 43.8028 269.781 43.3228C270.247 42.8428 270.481 42.1561 270.481 41.2628C270.481 40.3694 270.254 39.6828 269.801 39.2028C269.361 38.7228 268.814 38.4828 268.161 38.4828C267.494 38.4828 266.941 38.7228 266.501 39.2028C266.061 39.6694 265.841 40.3561 265.841 41.2628C265.841 42.1561 266.054 42.8428 266.481 43.3228C266.921 43.8028 267.467 44.0428 268.121 44.0428ZM282.575 35.5628C283.882 35.5628 284.922 35.9894 285.695 36.8428C286.482 37.6828 286.875 38.8428 286.875 40.3228V46.8428H283.475V40.7828C283.475 40.0361 283.282 39.4561 282.895 39.0428C282.508 38.6294 281.988 38.4228 281.335 38.4228C280.682 38.4228 280.162 38.6294 279.775 39.0428C279.388 39.4561 279.195 40.0361 279.195 40.7828V46.8428H275.775V35.6828H279.195V37.1628C279.542 36.6694 280.008 36.2828 280.595 36.0028C281.182 35.7094 281.842 35.5628 282.575 35.5628Z" fill="#084B59"/>
</svg>
