<svg width="48" height="56" viewBox="0 0 48 56" fill="none" xmlns="http://www.w3.org/2000/svg">
<path d="M24 45.5303C34.7719 45.5303 43.5 35.5293 43.5 23.1865C43.5 10.8438 34.7719 0.842773 24 0.842773C13.2281 0.842773 4.5 10.8438 4.5 23.1865C4.5 35.5293 13.2281 45.5303 24 45.5303ZM21.9188 11.3057V9.50098C21.9188 8.5127 22.6125 7.71777 23.475 7.71777H24.5156C25.3781 7.71777 26.0719 8.5127 26.0719 9.50098V11.3271C27.525 11.4131 28.9313 11.9824 30.1031 12.9814C30.6281 13.4219 30.6844 14.3027 30.2156 14.8184L28.6875 16.4834C28.3312 16.8809 27.7969 16.8916 27.375 16.5908C26.8687 16.2256 26.3063 16.043 25.7063 16.043H22.0594C21.2156 16.043 20.5312 16.9238 20.5312 18.0088C20.5312 18.8896 21 19.6738 21.6656 19.8994L27.5062 21.9082C29.9156 22.7354 31.6031 25.3887 31.6031 28.3643C31.6031 32.0166 29.1281 34.9707 26.0625 35.0674V36.8721C26.0625 37.8604 25.3687 38.6553 24.5062 38.6553H23.4656C22.6031 38.6553 21.9094 37.8604 21.9094 36.8721V35.0459C20.4562 34.96 19.05 34.3906 17.8781 33.3916C17.3531 32.9512 17.2969 32.0703 17.7656 31.5547L19.2938 29.8896C19.65 29.4922 20.1844 29.4814 20.6063 29.7822C21.1125 30.1475 21.675 30.3301 22.275 30.3301H25.9219C26.7656 30.3301 27.45 29.4492 27.45 28.3643C27.45 27.4834 26.9813 26.6992 26.3156 26.4736L20.475 24.4648C18.0656 23.6377 16.3781 20.9844 16.3781 18.0088C16.3875 14.3564 18.8531 11.4023 21.9188 11.3057ZM45 38.6553H41.9531C40.1156 41.4482 37.7719 43.7793 35.1094 45.5303H41.0906C41.5875 45.5303 41.9906 45.917 41.9906 46.3896V48.1084C41.9906 48.5811 41.5875 48.9678 41.0906 48.9678H6.9C6.40312 48.9678 6 48.5811 6 48.1084V46.3896C6 45.917 6.40312 45.5303 6.9 45.5303H12.8812C10.2187 43.7793 7.88438 41.4482 6.0375 38.6553H3C1.34062 38.6553 0 40.1914 0 42.0928V52.4053C0 54.3066 1.34062 55.8428 3 55.8428H45C46.6594 55.8428 48 54.3066 48 52.4053V42.0928C48 40.1914 46.6594 38.6553 45 38.6553Z" fill="#084B59"/>
</svg>
