<svg width="110" height="48" viewBox="0 0 110 48" fill="none" xmlns="http://www.w3.org/2000/svg">
<g filter="url(#filter0_d_102_42)">
<path d="M13.2988 3.19922L13.7383 3.30469C13.832 3.41016 14.0078 3.62109 14.2656 3.9375C14.5352 4.25391 14.6816 4.7168 14.7051 5.32617L15.2852 6.08203L15.2148 6.55664L15.9355 7.55859L15.8652 7.96289L16.1113 8.45508L15.9355 9.10547L16.4453 9.58008L16.6562 10.4062H17.4121L18.1504 10.7578C18.2559 10.8047 18.3613 10.875 18.4668 10.9688L18.8887 11.373L18.7129 12.4629L18.959 12.709L18.8887 13.3594L19.0293 13.8516L18.6426 14.502L18.7832 15.082L18.2559 15.6797C18.1738 15.7617 18.1094 15.9141 18.0625 16.1367L18.7129 16.7695L18.0625 17.1035L17.5527 17.9297L16.9375 18.0879C16.7031 18.1465 16.5039 18.2285 16.3398 18.334L15.6895 18.7559L15.8652 19.002C15.4199 19.6816 15.2031 20.0566 15.2148 20.127L14.8984 20.3027L14.6348 21.1289L14.459 21.1992L14.1426 21.7793C13.8379 22.0254 13.5098 22.3711 13.1582 22.8164L13.2285 22.9043L12.7363 23.5723L12.4023 23.4668L12.5957 23.7305L11.2949 25.0488L9.48438 26.5957H9.16797L8.72852 27.0703C8.49414 27.1523 8.23047 27.2988 7.9375 27.5098L7.51562 27.2461L7.375 27.3164L6.68945 27.1055C6.4668 27.0352 6.20312 26.8945 5.89844 26.6836C5.64062 26.4258 5.44727 26.291 5.31836 26.2793L5.07227 25.7344L4.73828 25.7695L4.66797 25.4531L4.22852 25.2773L4.35156 25.0488L4.66797 24.873L4.49219 24.6973L4.59766 24.4863L4.35156 23.9766L4.1582 23.6953C4.11133 23.6133 4.0293 23.2734 3.91211 22.6758H3.70117L3.77148 22.1836L3.70117 21.6738L3.8418 21.3398L3.70117 21.2695L3.91211 19.9863L3.70117 19.1602L3.91211 19.002L3.8418 18.7559L3.91211 17.9297L3.77148 17.4199L4.08789 16.8926V16.0488L4.49219 14.3965H4.42188L4.59766 14.0098L4.49219 13.8516L4.66797 13.7461L4.59766 13.4297L5.2832 11.7422L5.31836 11.8125V11.4785L5.38867 10.9863L5.56445 10.916V10.582L5.63477 10.4062L5.96875 10.3359L5.82812 10.2656L6.03906 10.0723L5.96875 9.43945L6.21484 9.24609L6.46094 8.5957H6.53125L6.6543 8.20898C6.70117 8.0918 6.83008 7.92188 7.04102 7.69922V7.38281L7.375 7.3125V7.13672L8.3418 6.08203L8.48242 5.69531L8.92188 5.50195L8.99219 5.11523C9.36719 4.78711 9.58398 4.61719 9.64258 4.60547C9.75977 4.30078 10.0352 4.06055 10.4688 3.88477L11.6816 3.39258H12.5957L13.2988 3.19922ZM10.8555 6.32812L10.1348 6.80273L9.57227 7.69922L9.11523 8.13867C8.98633 8.2793 8.77539 8.60156 8.48242 9.10547L8.16602 9.93164L7.84961 10.5469C7.74414 10.7344 7.65625 11.0449 7.58594 11.4785L7.375 11.7422V12.4629L6.93555 12.8496L6.79492 13.4297V13.7461L6.35547 14.1855V14.3262L5.70508 15.873L5.82812 16.4531L5.45898 17.2793L5.63477 17.4199L5.45898 18L5.63477 18.2461L5.38867 19.002L5.14258 20.3027L5.45898 20.4434L4.91406 20.7773L5.14258 21.2695H5.31836L5.24805 21.9199V22.8164C5.48242 22.9922 5.63477 23.1621 5.70508 23.3262L5.63477 23.5723C5.82227 23.9707 5.95703 24.3223 6.03906 24.627L6.33789 24.8027C6.41992 24.8496 6.61914 25.0664 6.93555 25.4531L7.69141 25.2773L7.9375 25.6992L8.58789 25.3828L8.6582 25.207L9.0625 25.1367L9.23828 24.5566H9.30859L9.48438 24.2227H10.0645C10.416 23.8125 10.6328 23.4902 10.7148 23.2559L11.0312 23.1504L11.1895 22.6758L11.752 21.6035L12.2617 21.3398L12.332 20.9531L13.0879 20.6367L12.7363 20.3027V19.916C12.9121 19.623 13.0293 19.3418 13.0879 19.0723L12.3848 18.8613C12.3027 18.8379 12.1328 18.6973 11.875 18.4395L11.1191 18.5801L11.5059 18.1758L12.1914 17.8594L12.5078 17.5957C12.7656 17.4551 12.9355 17.3145 13.0176 17.1738C13.1113 17.0215 13.1816 16.8398 13.2285 16.6289L13.4922 16.4531L13.2285 16.1367V15.627L13.1582 15.082L13.2285 14.9062L12.9121 14.502L12.9824 14.2559L13.2988 14.0801L13.4219 13.8516H13.2285L13.0879 13.0254L13.1582 12.6035L12.7363 12.4629L12.666 11.8828L12.8418 11.7422C12.7949 11.3789 12.6484 10.9336 12.4023 10.4062H12.5957L12.1914 9.93164L12.2617 9.68555C11.9688 9.14648 11.7988 8.73633 11.752 8.45508L11.5059 8.20898V7.55859L11.3652 7.24219L11.1895 7.13672L10.8555 6.32812ZM36.9238 0.544922L37.4336 0.615234L37.5039 0.861328L37.75 0.931641L37.6797 1.65234V1.91602L37.4336 2.16211L37.3809 2.72461C37.3457 3.06445 37.2285 3.3457 37.0293 3.56836L37.2578 3.70898L36.8535 3.88477V4.28906L36.4668 4.67578V5.32617L36.3438 5.25586L36.1328 5.69531L36.0449 6.41602C36.0332 6.50977 35.9453 6.67383 35.7812 6.9082L35.8867 7.3125L35.7285 7.75195C35.6582 7.93945 35.582 8.07422 35.5 8.15625L35.1309 8.52539V9.17578L35.3066 9.24609L35.1309 10.2656L35.2363 10.4766L34.7969 11.2324V11.8828L34.4805 12.1992V13.0254L34.0762 13.6055V13.9395L34.2344 14.0801L34.1465 14.5723L34.3398 14.8359C34.1641 15.1992 33.9121 15.4395 33.584 15.5566L33.5137 16.0488L33.7598 16.207L33.25 16.5234L33.3203 16.8926L33.25 17.3496C33.8711 17.3027 34.2344 17.2559 34.3398 17.209L34.6562 17.3496L33.1797 19.1602L32.6875 21.1289L32.3535 21.3398L32.4238 21.9199L32.2832 22.0957L32.3535 22.3594L32.2832 22.5V23.2559L32.3535 23.7305H32.2129L32.1074 24.1523L31.8438 24.3633H31.7031V25.2773L32.0371 25.4531L31.6328 26.0332H31.7734L31.7031 26.3496L31.9668 26.6836V27L32.2129 27.2461L32.1074 27.8262L32.2832 28.1602V29.4434L32.0371 29.5137L32.2832 30.0938V30.6035L32.5996 31.8164L33.6543 34.084H33.584L34.1465 34.5938C34.4863 35.1445 34.7676 35.5781 34.9902 35.8945C35.3535 36.0938 35.5645 36.2637 35.623 36.4043H35.7812V36.5801L36.1328 36.791H36.3438L36.6777 37.0371C37.1582 36.9199 37.4922 36.6562 37.6797 36.2461C37.9258 36.2109 38.2246 36.0469 38.5762 35.7539L38.9102 36.3164L38.6465 36.4043V36.7207L38.3301 36.8965L38.4004 37.3008V37.6172L38.6465 37.5469V38.127L38.1543 38.373L38.2598 38.5137L38.0137 38.584L37.8906 38.7773L38.0137 38.918H37.75L37.8203 39.0938C37.5273 39.1641 37.1816 39.334 36.7832 39.6035C36.666 39.5449 36.3906 39.2695 35.957 38.7773L35.2363 39.0234L34.8672 38.584L34.7266 38.2676L34.6211 38.1797C34.5742 38.1445 34.5273 38.0801 34.4805 37.9863C34.4453 37.9043 34.3984 37.8047 34.3398 37.6875V37.3711L34.0762 36.9668V36.791L33.7598 36.5801L31.9668 34.3477L30.877 32.3965L30.9824 32.1504L30.5605 31.5L30.877 31.3242L30.7363 30.9902L30.6309 30.0938L30.4902 29.7773L30.2969 29.0566L29.9805 28.582C29.9336 28.5117 29.8926 28.3301 29.8574 28.0371L29.7344 27.0703V26.3496H29.6465L29.8398 25.5938L29.7344 25.207L29.2598 25.1367L29.4004 24.8027L29.5762 24.9434L29.3301 23.9062L29.0137 24.293L29.3301 23.2559H29.084V23.3262L28.8203 23.2559L28.0293 24.0469L27.959 23.9766L27.4668 24.2227V24.5566L27.0625 24.873V25.0488H26.8164L26.5176 25.2773C26.4238 25.3477 26.2188 25.4062 25.9023 25.4531L25.9902 25.8398L25.5859 26.1035C25.4688 26.5723 25.3223 26.8945 25.1465 27.0703V27.3164L24.8301 27.5801V27.9668L24.5137 27.8965L24.0391 28.8633L23.3535 29.127L23.2129 29.4434L22.8789 29.5137V29.6367L22.3867 29.8477H22.3164C22.1992 29.4492 22.0645 29.1855 21.9121 29.0566V29.1973C21.6543 28.8457 21.4609 28.6289 21.332 28.5469L21.2266 27.6504L21.332 27.2461V27C21.25 26.8008 21.168 26.666 21.0859 26.5957L21.2266 26.3496V26.1035L21.332 25.5938L21.0156 25.2773L21.332 25.0488C21.168 24.709 21.0859 24.3516 21.0859 23.9766V23.7305L21.1562 23.3262L21.0156 22.9043L21.332 22.3594L21.1562 21.2695H21.332L21.4902 20.707V20.4434H21.666V18.8262L21.9121 18.6504L21.9824 17.8594V17.5254H22.5625L22.7031 16.6289L23.2832 16.7695L23.6875 15.7324V15.416L23.793 15.5566C23.9453 15.2988 24.1328 14.8418 24.3555 14.1855L24.584 14.0098V13.7461L24.6895 14.0098L24.7598 13.5L25.0762 13.4297L25.2695 13.0254V12.8496L25.5156 12.7793C25.5859 12.6152 25.9082 12.293 26.4824 11.8125L26.5527 11.9531L26.8164 11.6367L27.1328 11.7422L27.2734 11.6367V11.4785L27.4668 11.5488L27.7129 10.8281L28.5039 11.0566L28.4336 10.9863H28.9434L28.8203 10.916L29.084 10.8281L29.9453 10.9512L30.9824 11.5488H30.6309L31.3164 11.7422V11.8828L31.7734 12.3926C31.9141 12.8965 32.0254 13.1602 32.1074 13.1836L32.3535 13.0957L32.5293 12.6035L32.8633 12.4629V11.6367L32.9336 11.373L33.1797 11.3027L33.1094 10.7227L33.25 10.4766L33.6543 10.2656L33.5137 9.93164L33.584 9.82617L33.25 9.68555V6.41602L33.5137 6.15234C33.5605 5.91797 33.6074 5.76562 33.6543 5.69531L33.584 5.57227V4.60547L33.1797 4.85156L32.8633 4.78125C32.8164 4.82813 32.6699 4.88086 32.4238 4.93945L32.3535 5.25586L31.8438 5.50195H31.6328L31.2109 5.18555L30.9824 4.53516L30.8066 4.42969L30.9824 4.21875L30.8066 3.70898L30.9824 3.46289L31.3164 3.39258L31.3867 3.12891L31.7031 3.05859L32.0371 2.47852H32.2129L32.2832 2.30273L33.584 1.33594L33.6543 1.19531H34.2344V1.00195L34.4102 1.19531H34.6562L34.7266 0.931641C34.9492 0.896484 35.1426 0.814453 35.3066 0.685547L36.9238 0.544922ZM28.0996 13.9395L27.959 14.3965L26.8164 14.9766L26.3066 16.0488L26.0605 16.207H25.9902L25.832 16.4531L25.7266 16.3828L25.5859 16.7695L25.7266 16.9629C25.6328 17.5488 25.5273 17.8945 25.4102 18V18.3164C25.2109 18.4688 25.0527 18.75 24.9355 19.1602H24.7598V19.5469L24.5137 20.3027L24.6895 20.707C24.4551 21.3633 24.2617 21.8027 24.1094 22.0254L24.25 22.2539V22.9043L24.4434 23.0801L24.1797 23.4668L24.25 23.9766L24.584 24.3633V24.2227L24.8301 24.3633L25.3398 24.1523L25.4805 24.2227L26.377 23.1504L26.623 23.0801V23.0098L27.1328 22.5L27.7129 22.2539L28.0996 21.7793L28.3633 21.6738L29.1895 20.9531L30.2969 20.127L30.5254 19.4414C30.5488 19.3711 30.7012 19.1895 30.9824 18.8965C31.0762 18.4395 31.2109 18.0938 31.3867 17.8594L30.877 17.2793L30.8066 15.9785L30.7363 15.5566V15.416C30.6074 15.2402 30.5254 15.0703 30.4902 14.9062H30.2266L30.1562 15.293L29.7344 15.2227V14.8359L29.5762 14.9062L29.5059 14.6602L29.0137 14.8359L28.5039 14.6602L28.4336 14.2559L28.0996 13.9395ZM46.3984 10.9863L46.8379 11.0566H46.9082L46.8379 11.2324H46.9785L47.2246 11.4785L48.0508 11.5488H48.877L49.3516 11.8125H49.5273L49.791 12.709L49.4219 13.0254V13.3594L50.002 13.9395L49.9316 15.5566H49.6855L49.5977 15.873H49.5273V16.3828L49.8613 16.4531L50.002 16.6289L49.791 16.9629V17.209L49.3516 17.4199L49.0352 17.6836L48.1211 18.1758C47.875 18.4336 47.6641 18.627 47.4883 18.7559L47.2246 19.4766L45.6777 20.0918L44.1309 20.0566L44.2012 20.4434H43.8848L43.8145 20.5488L43.0586 20.707L42.9883 20.4434L42.7246 20.5488V20.707L42.0742 20.9531L41.8281 21.6738L42.1621 22.5703V23.0098L42.3379 23.3965C42.1035 24.0879 41.9336 24.4512 41.8281 24.4863L41.9336 24.8027L41.7578 24.873L42.1621 25.0488V25.5938L42.5137 25.8398C43.0996 25.6641 43.457 25.5352 43.5859 25.4531L43.8496 25.6992L43.9199 25.6289C44.4004 25.582 44.7812 25.5234 45.0625 25.4531L45.1855 25.2422H45.6074L45.9414 25.207L46.3633 25.418L46.2578 25.2773H46.6094L47.0488 24.9082L47.5586 24.873H47.4531L47.9453 24.6621L48.0859 24.7676L48.3496 24.5215H48.7012L49.0352 24.1875C49.293 24.1758 49.709 24.0234 50.2832 23.7305V23.5371L50.793 23.3965L51.3379 22.6055L51.918 22.6758C52.1172 22.8633 52.3516 22.9746 52.6211 23.0098L52.8848 23.2559L52.4805 24.0117L52.5508 24.4863L51.9883 24.8027L51.918 24.9785L51.0742 25.084L50.6172 25.5586L50.1074 25.5938L49.9668 25.998L49.2812 25.9277L49.0703 26.4199L48.5254 26.3496L48.3145 26.5957C47.916 26.748 47.7109 26.8359 47.6992 26.8594L47.4531 26.7188L47.0488 27.1055H46.4688L46.1172 27.2812H45.9062L45.6426 27.5098C45.3379 27.5918 45.0273 27.7207 44.7109 27.8965L44.4648 27.7207H43.9551L43.7441 27.8965L43.5508 27.8262L43.3047 27.8965L43.2344 27.8262L43.0586 28.2305H42.584L42.1973 28.4414C42.0684 28.5117 41.7871 28.5703 41.3535 28.6172L41.1777 28.793H40.8613L40.3867 28.8633L40.0352 29.3027L39.5605 29.127L39.3145 29.4434L39.1211 29.3906C39.0742 29.3789 38.8398 29.1562 38.418 28.7227L38.4883 28.3008L38.418 28.0723L38.4883 27.6504L38.2246 27L38.3301 26.4902L38.1543 25.6992L38.3301 25.0488L38.084 24.0469L38.0137 23.9766L38.084 23.4668L38.6641 23.2559V22.9043L38.418 22.8164L38.4883 22.3594L38.3301 22.0957L38.418 21.6738L38.6641 21.5332L38.5938 21.1289L38.6641 20.4434L38.8047 20.373L39.0508 19.5469L39.6309 18.5098L40.1406 18.3164L40.2109 17.7539L40.1406 17.5957L40.2109 17.2793L40.5273 17.1035L40.7207 16.5234H40.2812V16.3125L40.457 16.0488L40.3867 15.8027L40.457 15.5566H40.5273V14.9766L41.1074 14.9062L41.3535 14.3965L42.584 13.0254H42.8301C42.9707 12.8027 43.1523 12.6152 43.375 12.4629L43.6211 12.5332C43.7852 12.4746 43.9785 12.2812 44.2012 11.9531H44.377L44.7109 11.7422H44.8516L45.0977 11.373L46.3984 10.9863ZM45.9766 13.9746L45.3613 14.1855L44.8867 13.9746C44.6055 14.209 44.377 14.373 44.2012 14.4668C44.166 14.7715 44.043 15.0293 43.832 15.2402C43.6328 15.4512 43.4922 15.5566 43.4102 15.5566H43.0938L43.3047 15.9434C43.1758 16.1777 43.0059 16.541 42.7949 17.0332L42.5137 16.9629L42.4082 17.4199L42.5137 18.0703L42.8652 18.2637C42.9707 18.3223 43.2637 18.3926 43.7441 18.4746L44.3066 18.1055L45.4668 18L46.082 17.1035L46.9082 16.418L47.0137 15.1172L46.7324 14.6953L46.6973 14.0801H46.293L45.9766 13.9746ZM65.4004 22.4648C65.3066 22.4648 65.2598 22.6582 65.2598 23.0449C65.0957 23.2324 64.9375 23.4199 64.7852 23.6074C64.6445 23.7949 64.5039 23.9297 64.3633 24.0117L64.0996 23.9414C63.9238 24.082 63.8184 24.252 63.7832 24.4512C63.7598 24.498 63.7012 24.5215 63.6074 24.5215C63.5371 24.5215 63.4844 24.457 63.4492 24.3281C63.3086 24.6211 63.1211 24.7676 62.8867 24.7676V24.9434H62.7285L62.5527 24.8379C62.3418 24.9902 62.2363 25.1602 62.2363 25.3477H61.9727L62.043 25.2422H61.9023V25.418L61.6562 25.7344H61.3398V25.8047H61.1465V25.9277L60.8301 25.998V26.0684L60.6895 25.998L60.6191 26.1387L60.4961 25.998L59.7754 26.3848L59.8633 26.4551H59.7051C59.6582 26.6777 59.5176 26.7891 59.2832 26.7891C59.2129 26.9531 59.1016 27.0352 58.9492 27.0352L58.8789 27.1406C58.6094 27.1406 58.3633 27.2812 58.1406 27.5625C57.9297 27.8438 57.748 28.002 57.5957 28.0371L57.4727 27.8613L57.4023 28.0371L57.5957 28.1074H57.332V28.1953C57.1211 28.2422 56.8457 28.4297 56.5059 28.7578C56.248 28.6875 56.0781 28.582 55.9961 28.4414L54.959 26.3848C55.0527 26.3262 55.0996 26.2324 55.0996 26.1035C55.0996 25.9277 55.0527 25.7461 54.959 25.5586H55.0293L54.7129 24.6621H54.8887L54.7129 24.4512L54.7832 24.3281C54.8535 24.3281 54.8887 24.293 54.8887 24.2227V24.1172L55.0293 24.1875V24.0117L55.0996 23.7656L55.4688 23.6074L55.3633 23.5371C55.5156 23.291 55.6094 22.9512 55.6445 22.5176C55.6797 22.084 55.7266 21.8262 55.7852 21.7441L55.6094 21.4277V20.9883L55.7852 20.4082L55.8555 20.5137C55.9492 20.373 56.0371 20.1562 56.1191 19.8633C56.0957 19.8281 56.084 19.7578 56.084 19.6523C56.084 19.5352 56.0898 19.4648 56.1016 19.4414L56.4355 19.1074L56.3301 18.7207L56.5762 18.4043V18.2812L56.6816 18.4043V18.0703L56.5762 17.9648H56.6816L56.9102 17.3145V17.2441L57.0156 17.3145L57.1562 16.2773H57.2266L57.5957 15.1875L57.4727 15.2578L58.0527 13.7109H57.9824L58.5625 12.9199V12.498L58.7031 12.0938C58.6094 12.0703 58.5039 11.9648 58.3867 11.7773L58.8789 10.9512V10.1074L58.5625 9.89648C58.5625 9.83789 58.6094 9.73242 58.7031 9.58008C58.6445 9.38086 58.5977 9.25781 58.5625 9.21094L57.7363 7.99805L57.5957 7.92773C57.4082 7.92773 57.2383 7.98633 57.0859 8.10352H56.9805C56.6875 8.10352 56.4707 7.95703 56.3301 7.66406L56.5059 7.08398L56.4355 6.87305L56.9102 6.55664L56.8398 6.45117C57.2148 6.36914 57.4785 6.19336 57.6309 5.92383C57.7949 5.6543 57.9355 5.44336 58.0527 5.29102C58.2051 5.29102 58.334 5.26758 58.4395 5.2207C58.5566 5.17383 58.6445 5.10938 58.7031 5.02734C58.7617 4.93359 58.8203 4.83984 58.8789 4.74609H59.1426L59.459 4.25391V4.06055L59.7051 3.84961C59.8574 3.84961 59.9688 3.74414 60.0391 3.5332L59.9336 3.33984L60.1094 3.42773L60.3555 3.26953C60.4141 3.09375 60.5254 2.9707 60.6895 2.90039C60.8652 2.81836 61.1055 2.68945 61.4102 2.51367C61.4453 2.37305 61.5859 2.26758 61.832 2.19727V2.12695L62.2363 2.05664V1.95117L63.5195 1.23047V1.16016C63.625 0.984375 63.7715 0.896484 63.959 0.896484C64.2754 0.896484 64.4336 1.20703 64.4336 1.82812V2.19727H64.3633V2.44336C64.3633 2.99414 64.1465 3.38086 63.7129 3.60352C63.6895 3.76758 63.6074 3.90234 63.4668 4.00781C63.3379 4.11328 63.1445 4.32422 62.8867 4.64062H62.957C62.7695 4.75781 62.6523 5.00977 62.6055 5.39648C62.5703 5.7832 62.4941 6.13477 62.377 6.45117L62.3066 6.36328L62.377 6.69727H62.3066L62.2363 6.76758L62.377 6.9082C62.248 7.02539 62.1777 7.16016 62.166 7.3125C62.1543 7.45312 62.1309 7.52344 62.0957 7.52344H62.043L61.7266 7.92773C61.9375 8.06836 62.043 8.2207 62.043 8.38477C62.043 8.47852 61.9727 8.53711 61.832 8.56055V8.75391L61.7266 8.68359V9.58008H61.4102L61.252 10.1074L61.3398 10.6172L61.1465 11.0215V11.127H61.0059L61.0762 11.5137L60.9355 11.4434L60.6895 12.9902L60.1797 14.6074L60.0391 15.2578C59.8633 15.4688 59.7754 15.6387 59.7754 15.7676C59.7754 15.873 59.8047 16.043 59.8633 16.2773C59.4648 17.1328 59.2246 17.9707 59.1426 18.791L58.9492 18.8613L58.8789 18.9668C58.8438 19.2012 58.7852 19.3828 58.7031 19.5117L58.6328 21.0938L58.8086 21.6387L58.7031 22.7109L59.2129 23.7656C59.002 23.7656 58.8672 23.8477 58.8086 24.0117H58.7031L59.0195 24.3281L58.9492 24.5918H59.1426L59.459 24.9082L59.7754 24.5918L60.1797 24.416C60.2969 24.3574 60.4668 24.2227 60.6895 24.0117H61.0762V23.8711L61.1465 23.9414C61.498 23.5781 61.8613 23.3848 62.2363 23.3613L62.166 23.291L62.7285 23.1152V22.9746C63.0684 22.9043 63.332 22.7344 63.5195 22.4648C63.9414 22.3945 64.2227 22.2363 64.3633 21.9902H64.5039L64.9961 21.6387L65.4004 22.4648ZM79.5332 22.4648C79.4395 22.4648 79.3926 22.6582 79.3926 23.0449C79.2285 23.2324 79.0703 23.4199 78.918 23.6074C78.7773 23.7949 78.6367 23.9297 78.4961 24.0117L78.2324 23.9414C78.0566 24.082 77.9512 24.252 77.916 24.4512C77.8926 24.498 77.834 24.5215 77.7402 24.5215C77.6699 24.5215 77.6172 24.457 77.582 24.3281C77.4414 24.6211 77.2539 24.7676 77.0195 24.7676V24.9434H76.8613L76.6855 24.8379C76.4746 24.9902 76.3691 25.1602 76.3691 25.3477H76.1055L76.1758 25.2422H76.0352V25.418L75.7891 25.7344H75.4727V25.8047H75.2793V25.9277L74.9629 25.998V26.0684L74.8223 25.998L74.752 26.1387L74.6289 25.998L73.9082 26.3848L73.9961 26.4551H73.8379C73.791 26.6777 73.6504 26.7891 73.416 26.7891C73.3457 26.9531 73.2344 27.0352 73.082 27.0352L73.0117 27.1406C72.7422 27.1406 72.4961 27.2812 72.2734 27.5625C72.0625 27.8438 71.8809 28.002 71.7285 28.0371L71.6055 27.8613L71.5352 28.0371L71.7285 28.1074H71.4648V28.1953C71.2539 28.2422 70.9785 28.4297 70.6387 28.7578C70.3809 28.6875 70.2109 28.582 70.1289 28.4414L69.0918 26.3848C69.1855 26.3262 69.2324 26.2324 69.2324 26.1035C69.2324 25.9277 69.1855 25.7461 69.0918 25.5586H69.1621L68.8457 24.6621H69.0215L68.8457 24.4512L68.916 24.3281C68.9863 24.3281 69.0215 24.293 69.0215 24.2227V24.1172L69.1621 24.1875V24.0117L69.2324 23.7656L69.6016 23.6074L69.4961 23.5371C69.6484 23.291 69.7422 22.9512 69.7773 22.5176C69.8125 22.084 69.8594 21.8262 69.918 21.7441L69.7422 21.4277V20.9883L69.918 20.4082L69.9883 20.5137C70.082 20.373 70.1699 20.1562 70.252 19.8633C70.2285 19.8281 70.2168 19.7578 70.2168 19.6523C70.2168 19.5352 70.2227 19.4648 70.2344 19.4414L70.5684 19.1074L70.4629 18.7207L70.709 18.4043V18.2812L70.8145 18.4043V18.0703L70.709 17.9648H70.8145L71.043 17.3145V17.2441L71.1484 17.3145L71.2891 16.2773H71.3594L71.7285 15.1875L71.6055 15.2578L72.1855 13.7109H72.1152L72.6953 12.9199V12.498L72.8359 12.0938C72.7422 12.0703 72.6367 11.9648 72.5195 11.7773L73.0117 10.9512V10.1074L72.6953 9.89648C72.6953 9.83789 72.7422 9.73242 72.8359 9.58008C72.7773 9.38086 72.7305 9.25781 72.6953 9.21094L71.8691 7.99805L71.7285 7.92773C71.541 7.92773 71.3711 7.98633 71.2188 8.10352H71.1133C70.8203 8.10352 70.6035 7.95703 70.4629 7.66406L70.6387 7.08398L70.5684 6.87305L71.043 6.55664L70.9727 6.45117C71.3477 6.36914 71.6113 6.19336 71.7637 5.92383C71.9277 5.6543 72.0684 5.44336 72.1855 5.29102C72.3379 5.29102 72.4668 5.26758 72.5723 5.2207C72.6895 5.17383 72.7773 5.10938 72.8359 5.02734C72.8945 4.93359 72.9531 4.83984 73.0117 4.74609H73.2754L73.5918 4.25391V4.06055L73.8379 3.84961C73.9902 3.84961 74.1016 3.74414 74.1719 3.5332L74.0664 3.33984L74.2422 3.42773L74.4883 3.26953C74.5469 3.09375 74.6582 2.9707 74.8223 2.90039C74.998 2.81836 75.2383 2.68945 75.543 2.51367C75.5781 2.37305 75.7188 2.26758 75.9648 2.19727V2.12695L76.3691 2.05664V1.95117L77.6523 1.23047V1.16016C77.7578 0.984375 77.9043 0.896484 78.0918 0.896484C78.4082 0.896484 78.5664 1.20703 78.5664 1.82812V2.19727H78.4961V2.44336C78.4961 2.99414 78.2793 3.38086 77.8457 3.60352C77.8223 3.76758 77.7402 3.90234 77.5996 4.00781C77.4707 4.11328 77.2773 4.32422 77.0195 4.64062H77.0898C76.9023 4.75781 76.7852 5.00977 76.7383 5.39648C76.7031 5.7832 76.627 6.13477 76.5098 6.45117L76.4395 6.36328L76.5098 6.69727H76.4395L76.3691 6.76758L76.5098 6.9082C76.3809 7.02539 76.3105 7.16016 76.2988 7.3125C76.2871 7.45312 76.2637 7.52344 76.2285 7.52344H76.1758L75.8594 7.92773C76.0703 8.06836 76.1758 8.2207 76.1758 8.38477C76.1758 8.47852 76.1055 8.53711 75.9648 8.56055V8.75391L75.8594 8.68359V9.58008H75.543L75.3848 10.1074L75.4727 10.6172L75.2793 11.0215V11.127H75.1387L75.209 11.5137L75.0684 11.4434L74.8223 12.9902L74.3125 14.6074L74.1719 15.2578C73.9961 15.4688 73.9082 15.6387 73.9082 15.7676C73.9082 15.873 73.9375 16.043 73.9961 16.2773C73.5977 17.1328 73.3574 17.9707 73.2754 18.791L73.082 18.8613L73.0117 18.9668C72.9766 19.2012 72.918 19.3828 72.8359 19.5117L72.7656 21.0938L72.9414 21.6387L72.8359 22.7109L73.3457 23.7656C73.1348 23.7656 73 23.8477 72.9414 24.0117H72.8359L73.1523 24.3281L73.082 24.5918H73.2754L73.5918 24.9082L73.9082 24.5918L74.3125 24.416C74.4297 24.3574 74.5996 24.2227 74.8223 24.0117H75.209V23.8711L75.2793 23.9414C75.6309 23.5781 75.9941 23.3848 76.3691 23.3613L76.2988 23.291L76.8613 23.1152V22.9746C77.2012 22.9043 77.4648 22.7344 77.6523 22.4648C78.0742 22.3945 78.3555 22.2363 78.4961 21.9902H78.6367L79.1289 21.6387L79.5332 22.4648ZM95.7227 9.75586C95.8047 9.73242 96.0332 9.74414 96.4082 9.79102C96.7832 9.83789 97.0234 9.91992 97.1289 10.0371L97.7266 9.89648L98.0605 9.93164L98.3066 10.4062L98.2715 10.7578C98.0371 10.9453 97.8789 11.1504 97.7969 11.373H97.6211L97.4277 11.584C97.3691 11.6426 97.123 11.7422 96.6895 11.8828L96.6543 15.1523L96.9355 16.8398L96.9707 18.5801L97.2344 20.707L98.3418 23.7305C98.541 23.9531 98.6758 24.1289 98.7461 24.2578C99.332 23.9297 99.7012 23.7656 99.8535 23.7656C100.334 23.2148 100.645 22.9277 100.785 22.9043V22.7109L102.771 21.0234L102.807 20.707C102.936 20.6836 103.188 20.4551 103.562 20.0215L104.213 20.1621L104.564 20.9531L104.424 21.6387L104.072 21.498L103.896 21.8848H103.562C103.434 22.2363 103.24 22.5234 102.982 22.7461V22.9395L102.016 23.8359L101.84 24.293C101.617 24.4453 101.242 24.6504 100.715 24.9082L100.574 25.1719L100.539 25.084L100.328 25.4531L99.8535 25.5938L99.7832 25.8398H99.5371L99.6426 26.1035L99.3613 26.6484L99.0977 26.7188C99.1211 26.9062 98.9277 27.252 98.5176 27.7559L97.6914 27.791L97.5156 28.3008L97.0059 28.4414C96.6191 28.3359 96.3086 28.0957 96.0742 27.7207L94.8965 25.8047L93.7715 23.291L93.877 22.3594L93.6309 21.5332L93.8066 21.498C93.4668 20.8184 93.2969 20.3027 93.2969 19.9512L93.3848 19.3008L92.8398 18.9668L92.4707 19.1953V19.1074L92.2949 19.1953L91.8203 20.4082L91.5742 20.3027L91.5039 20.5488L91.3281 20.4785V20.6367H91.2578C91.2461 20.707 91.0762 21.0059 90.748 21.5332L90.6074 21.4629L90.502 22.2188L90.1328 22.4121C89.8867 22.541 89.7285 22.6934 89.6582 22.8691L89.5176 23.2207L89.6758 23.4316L89.2715 23.5723L89.0957 24.293L88.7969 24.4512L88.8848 24.5918C88.6035 24.8027 88.375 24.9434 88.1992 25.0137L88.041 25.2773L87.9004 25.084L87.6543 25.6992H87.4434L87.1445 26.7188L86.8281 26.8242L86.793 27.3516H86.2832L85.7734 28.5117L85.5273 28.6875H85.3164L85.2461 29.0215L84.1211 29.4434L82.9434 29.4785L82.4336 26.1387L82.6445 25.6992L82.6973 25.3477C82.709 25.2539 82.8496 24.9023 83.1191 24.293L83.0488 24.0469C83.2598 23.5664 83.4004 23.2793 83.4707 23.1855L83.3301 23.1152L83.6641 22.2539L83.6816 21.9199C83.6934 21.8262 83.7812 21.6094 83.9453 21.2695C83.8516 20.707 83.7578 20.3848 83.6641 20.3027L83.8047 20.0566L84.2617 20.127C84.5312 19.7637 84.7012 19.5703 84.7715 19.5469L84.877 19.2305H84.9473L84.7012 18.8613L84.9121 17.9297L85.0527 18C85.1934 17.6367 85.2812 17.4551 85.3164 17.4551L85.2461 16.998L85.7383 16.084V15.8379L85.6328 15.627L86.3535 14.0801L87.1797 12.9551C87.4609 12.709 87.7012 12.4336 87.9004 12.1289L88.5156 11.8828L89.3418 11.0215L90.1328 10.5469H90.6074L90.9941 10.4414H91.5391L91.7852 10.0371L92.2949 10.0723H92.8047V9.93164C92.9453 9.94336 93.0977 10.002 93.2617 10.1074L93.8066 9.89648L94.2109 10.002L94.3164 9.86133L94.7383 10.002L95.7227 9.75586ZM91.1875 12.5332L90.748 12.6035L90.2031 12.5684L90.0273 12.8848V13.1484C89.8398 13.2422 89.6348 13.3242 89.4121 13.3945L89.0957 14.1855C88.9316 14.8887 88.832 15.2461 88.7969 15.2578H88.6211L88.375 15.8379L88.252 16.3301C88.2168 16.4824 88.0996 16.6055 87.9004 16.6992L87.7246 17.3145L87.4434 17.8418C87.3379 18.041 87.2852 18.252 87.2852 18.4746V18.6152L87.1094 18.4746V18.7559H87.0039L87.0391 18.9316L86.8984 19.2305L86.6875 20.1621L86.3184 20.918L86.248 21.9902L86.1426 22.1484H86.0723L86.002 22.4648L86.1426 22.6055L85.9668 23.2559H85.8965L85.9668 23.4668H85.7031L85.7383 24.7676L85.8965 25.3828H85.9668L86.3535 25.0137L87.373 23.5723L89.2012 21.1641L89.7461 20.584L90.959 18.6152L92.2246 16.9277L92.3301 16.5586L92.084 16.2422L92.541 15.4512L92.6465 14.8535C92.6582 14.7949 92.7578 14.6426 92.9453 14.3965L92.9805 12.9902L92.5059 12.9551H92.1191L91.6094 12.6035L91.5039 12.7793L91.1875 12.5332Z" fill="#279BB5"/>
</g>
<defs>
<filter id="filter0_d_102_42" x="0.701172" y="0.544922" width="108.863" height="47.0586" filterUnits="userSpaceOnUse" color-interpolation-filters="sRGB">
<feFlood flood-opacity="0" result="BackgroundImageFix"/>
<feColorMatrix in="SourceAlpha" type="matrix" values="0 0 0 0 0 0 0 0 0 0 0 0 0 0 0 0 0 0 127 0" result="hardAlpha"/>
<feOffset dx="1" dy="4"/>
<feGaussianBlur stdDeviation="2"/>
<feComposite in2="hardAlpha" operator="out"/>
<feColorMatrix type="matrix" values="0 0 0 0 0.141934 0 0 0 0 0.165631 0 0 0 0 0.170833 0 0 0 0.89 0"/>
<feBlend mode="normal" in2="BackgroundImageFix" result="effect1_dropShadow_102_42"/>
<feBlend mode="normal" in="SourceGraphic" in2="effect1_dropShadow_102_42" result="shape"/>
</filter>
</defs>
</svg>
