<svg width="22" height="22" viewBox="0 0 22 22" fill="none" xmlns="http://www.w3.org/2000/svg">
<path d="M21.875 20.3564L14.707 13.0908C15.6836 11.7285 16.2646 10.0537 16.2646 8.24708C16.2646 3.70118 12.6172 4.82573e-06 8.13477 4.82573e-06C3.64746 -0.00487799 0 3.69629 0 8.24219C0 12.7881 3.64746 16.4893 8.12988 16.4893C10.0732 16.4893 11.8555 15.7959 13.2568 14.6387L20.3857 21.8701L21.875 20.3564ZM8.12988 14.585C4.68262 14.585 1.875 11.7383 1.875 8.24219C1.875 4.7461 4.68262 1.89942 8.12988 1.89942C11.5771 1.89942 14.3848 4.7461 14.3848 8.24219C14.3848 11.7383 11.582 14.585 8.12988 14.585Z" fill="black"/>
</svg>
