<svg width="25" height="25" viewBox="0 0 25 25" fill="none" xmlns="http://www.w3.org/2000/svg">
<path d="M12.7045 24.4541C6.01793 24.6501 0.441502 19.3913 0.245464 12.7048C0.0494274 6.01818 5.30819 0.441753 11.9948 0.245716C18.6813 0.0496789 24.2578 5.30844 24.4538 11.995C24.6499 18.6816 19.3911 24.258 12.7045 24.4541ZM13.9096 17.404L10.121 13.9784L19.0332 13.7171C19.6823 13.6981 20.1893 13.1605 20.1702 12.5114L20.1473 11.7305C20.1283 11.0813 19.5908 10.5744 18.9416 10.5935L10.0294 10.8547L13.6108 7.21307C14.0709 6.74528 14.0585 5.98849 13.5812 5.53841L13.0287 5.02215C12.5565 4.57682 11.8146 4.59857 11.3742 5.07066L5.08721 11.7324C4.64188 12.2046 4.66363 12.9465 5.13572 13.3869L11.8023 19.6738C12.2746 20.1191 13.0164 20.0973 13.4569 19.6253L13.9782 19.0775C14.4282 18.6003 14.3963 17.844 13.9096 17.404Z" fill="#084B59"/>
</svg>
